<svg width="203" height="34" viewBox="0 0 203 34" fill="none" xmlns="http://www.w3.org/2000/svg">
<path d="M0.865234 17C0.865234 8.16344 8.02867 1 16.8652 1H37.8652C46.7018 1 53.8652 8.16344 53.8652 17V33H16.8652C8.02867 33 0.865234 25.8366 0.865234 17Z" fill="white"/>
<path d="M37.8652 7H16.8652C11.3424 7 6.86523 11.4772 6.86523 17C6.86523 22.5228 11.3424 27 16.8652 27H37.8652C43.3881 27 47.8652 22.5228 47.8652 17C47.8652 11.4772 43.3881 7 37.8652 7Z" fill="#3A82F5"/>
<path d="M16.8652 22C19.6267 22 21.8652 19.7614 21.8652 17C21.8652 14.2386 19.6267 12 16.8652 12C14.1038 12 11.8652 14.2386 11.8652 17C11.8652 19.7614 14.1038 22 16.8652 22Z" fill="white"/>
<path d="M14.8652 16C15.4175 16 15.8652 15.5523 15.8652 15C15.8652 14.4477 15.4175 14 14.8652 14C14.3129 14 13.8652 14.4477 13.8652 15C13.8652 15.5523 14.3129 16 14.8652 16Z" fill="black"/>
<path d="M38.8652 22C41.6267 22 43.8652 19.7614 43.8652 17C43.8652 14.2386 41.6267 12 38.8652 12C36.1038 12 33.8652 14.2386 33.8652 17C33.8652 19.7614 36.1038 22 38.8652 22Z" fill="white"/>
<path d="M36.8652 16C37.4175 16 37.8652 15.5523 37.8652 15C37.8652 14.4477 37.4175 14 36.8652 14C36.3129 14 35.8652 14.4477 35.8652 15C35.8652 15.5523 36.3129 16 36.8652 16Z" fill="black"/>
<path d="M86.3239 14.2727H80.7159C80.6761 13.8087 80.5701 13.3878 80.3977 13.0099C80.232 12.6321 80 12.3073 79.7017 12.0355C79.41 11.7571 79.0554 11.545 78.6378 11.3991C78.2202 11.2467 77.7462 11.1705 77.2159 11.1705C76.2879 11.1705 75.5024 11.3958 74.8594 11.8466C74.223 12.2973 73.7391 12.9437 73.4077 13.7855C73.0829 14.6274 72.9205 15.6383 72.9205 16.8182C72.9205 18.0644 73.0862 19.1084 73.4176 19.9503C73.7557 20.7855 74.2429 21.4152 74.8793 21.8395C75.5156 22.2571 76.2813 22.4659 77.1761 22.4659C77.6866 22.4659 78.1439 22.4029 78.5483 22.277C78.9527 22.1444 79.304 21.9555 79.6023 21.7102C79.9006 21.465 80.1425 21.17 80.3281 20.8253C80.5204 20.474 80.6496 20.0795 80.7159 19.642L86.3239 19.6818C86.2576 20.5436 86.0156 21.4219 85.598 22.3168C85.1804 23.205 84.5871 24.027 83.8182 24.7827C83.0559 25.5317 82.1113 26.1349 80.9844 26.5923C79.8575 27.0497 78.5483 27.2784 77.0568 27.2784C75.1875 27.2784 73.5104 26.8774 72.0256 26.0753C70.5473 25.2732 69.3774 24.0933 68.5156 22.5355C67.6605 20.9777 67.233 19.072 67.233 16.8182C67.233 14.5511 67.6705 12.642 68.5455 11.0909C69.4205 9.53314 70.6004 8.35653 72.0852 7.56108C73.5701 6.759 75.2273 6.35795 77.0568 6.35795C78.3428 6.35795 79.526 6.53362 80.6065 6.88494C81.687 7.23627 82.6349 7.75 83.4503 8.42614C84.2656 9.09564 84.9219 9.92093 85.419 10.902C85.9162 11.883 86.2178 13.0066 86.3239 14.2727ZM95.2402 18.4091V27H89.7516V6.63636H95.0413V14.6307H95.2004C95.5451 13.6562 96.1185 12.8973 96.9206 12.3537C97.7227 11.8035 98.6872 11.5284 99.8141 11.5284C100.895 11.5284 101.833 11.7737 102.628 12.2642C103.43 12.7547 104.05 13.4309 104.487 14.2926C104.932 15.1544 105.15 16.142 105.144 17.2557V27H99.655V18.4091C99.6616 17.6534 99.4727 17.0601 99.0882 16.6293C98.7104 16.1984 98.1701 15.983 97.4675 15.983C97.0234 15.983 96.6323 16.0824 96.2942 16.2812C95.9628 16.4735 95.7042 16.7519 95.5186 17.1165C95.3396 17.4744 95.2468 17.9053 95.2402 18.4091ZM112.949 27.2386C111.974 27.2386 111.113 27.0795 110.364 26.7614C109.621 26.4366 109.038 25.946 108.614 25.2898C108.189 24.6335 107.977 23.7983 107.977 22.7841C107.977 21.9489 108.12 21.2363 108.405 20.6463C108.69 20.0497 109.088 19.5625 109.598 19.1847C110.108 18.8068 110.702 18.5185 111.378 18.3196C112.061 18.1207 112.796 17.9915 113.585 17.9318C114.44 17.8655 115.126 17.786 115.643 17.6932C116.167 17.5937 116.545 17.4579 116.777 17.2855C117.009 17.1065 117.125 16.8712 117.125 16.5795V16.5398C117.125 16.142 116.972 15.8371 116.668 15.625C116.363 15.4129 115.972 15.3068 115.494 15.3068C114.971 15.3068 114.543 15.4228 114.212 15.6548C113.887 15.8802 113.691 16.2282 113.625 16.6989H108.574C108.64 15.7708 108.935 14.9157 109.459 14.1335C109.989 13.3447 110.761 12.715 111.776 12.2443C112.79 11.767 114.056 11.5284 115.574 11.5284C116.668 11.5284 117.649 11.6577 118.517 11.9162C119.385 12.1681 120.124 12.5227 120.734 12.9801C121.344 13.4309 121.808 13.9612 122.126 14.571C122.451 15.1742 122.614 15.8305 122.614 16.5398V27H117.483V24.8523H117.364C117.059 25.4223 116.687 25.883 116.25 26.2344C115.819 26.5857 115.325 26.8409 114.768 27C114.218 27.1591 113.612 27.2386 112.949 27.2386ZM114.739 23.7784C115.156 23.7784 115.547 23.6922 115.912 23.5199C116.283 23.3475 116.585 23.099 116.817 22.7741C117.049 22.4493 117.165 22.0549 117.165 21.5909V20.3182C117.019 20.3778 116.863 20.4342 116.697 20.4872C116.538 20.5402 116.366 20.59 116.18 20.6364C116.001 20.6828 115.809 20.7259 115.604 20.7656C115.405 20.8054 115.196 20.8419 114.977 20.875C114.553 20.9413 114.205 21.0507 113.933 21.2031C113.668 21.349 113.469 21.5312 113.337 21.75C113.211 21.9621 113.148 22.2008 113.148 22.4659C113.148 22.8902 113.297 23.215 113.595 23.4403C113.893 23.6657 114.275 23.7784 114.739 23.7784ZM135.184 11.7273V15.7045H125.122V11.7273H135.184ZM127.07 8.06818H132.559V22.0881C132.559 22.3002 132.596 22.4792 132.668 22.625C132.741 22.7642 132.854 22.8703 133.007 22.9432C133.159 23.0095 133.355 23.0426 133.593 23.0426C133.759 23.0426 133.951 23.0227 134.17 22.983C134.395 22.9432 134.561 22.91 134.667 22.8835L135.462 26.7415C135.217 26.8144 134.866 26.9039 134.408 27.0099C133.958 27.116 133.421 27.1856 132.798 27.2188C131.538 27.285 130.481 27.1558 129.626 26.831C128.771 26.4995 128.128 25.9792 127.697 25.2699C127.266 24.5606 127.057 23.6723 127.07 22.6051V8.06818ZM138.512 27V6.63636H144.001V14.392H144.081C144.279 13.875 144.571 13.401 144.956 12.9702C145.34 12.5327 145.817 12.1847 146.387 11.9261C146.957 11.661 147.62 11.5284 148.376 11.5284C149.384 11.5284 150.341 11.7969 151.25 12.3338C152.164 12.8707 152.907 13.7159 153.477 14.8693C154.054 16.0227 154.342 17.5208 154.342 19.3636C154.342 21.1269 154.067 22.5885 153.517 23.7486C152.973 24.9086 152.244 25.7737 151.329 26.3438C150.421 26.9138 149.423 27.1989 148.336 27.1989C147.62 27.1989 146.981 27.0829 146.417 26.8509C145.86 26.6122 145.383 26.2907 144.985 25.8864C144.594 25.4754 144.293 25.0114 144.081 24.4943H143.961V27H138.512ZM143.882 19.3636C143.882 20.1061 143.978 20.7491 144.17 21.2926C144.369 21.8295 144.647 22.2472 145.005 22.5455C145.37 22.8371 145.804 22.983 146.308 22.983C146.812 22.983 147.239 22.8404 147.59 22.5554C147.948 22.2637 148.22 21.8494 148.406 21.3125C148.598 20.7689 148.694 20.1193 148.694 19.3636C148.694 18.608 148.598 17.9616 148.406 17.4247C148.22 16.8812 147.948 16.4669 147.59 16.1818C147.239 15.8902 146.812 15.7443 146.308 15.7443C145.804 15.7443 145.37 15.8902 145.005 16.1818C144.647 16.4669 144.369 16.8812 144.17 17.4247C143.978 17.9616 143.882 18.608 143.882 19.3636ZM164.837 27.2784C163.18 27.2784 161.761 26.9503 160.581 26.294C159.401 25.6312 158.496 24.7098 157.867 23.5298C157.237 22.3433 156.922 20.9678 156.922 19.4034C156.922 17.839 157.237 16.4669 157.867 15.2869C158.496 14.1004 159.401 13.179 160.581 12.5227C161.761 11.8598 163.18 11.5284 164.837 11.5284C166.494 11.5284 167.912 11.8598 169.092 12.5227C170.272 13.179 171.177 14.1004 171.807 15.2869C172.437 16.4669 172.751 17.839 172.751 19.4034C172.751 20.9678 172.437 22.3433 171.807 23.5298C171.177 24.7098 170.272 25.6312 169.092 26.294C167.912 26.9503 166.494 27.2784 164.837 27.2784ZM164.876 23.2216C165.341 23.2216 165.742 23.0658 166.08 22.7543C166.418 22.4427 166.68 21.9986 166.865 21.4219C167.051 20.8452 167.144 20.1591 167.144 19.3636C167.144 18.5616 167.051 17.8755 166.865 17.3054C166.68 16.7287 166.418 16.2846 166.08 15.973C165.742 15.6615 165.341 15.5057 164.876 15.5057C164.386 15.5057 163.965 15.6615 163.614 15.973C163.262 16.2846 162.994 16.7287 162.808 17.3054C162.623 17.8755 162.53 18.5616 162.53 19.3636C162.53 20.1591 162.623 20.8452 162.808 21.4219C162.994 21.9986 163.262 22.4427 163.614 22.7543C163.965 23.0658 164.386 23.2216 164.876 23.2216ZM184.927 11.7273V15.7045H174.864V11.7273H184.927ZM176.813 8.06818H182.302V22.0881C182.302 22.3002 182.338 22.4792 182.411 22.625C182.484 22.7642 182.597 22.8703 182.749 22.9432C182.902 23.0095 183.097 23.0426 183.336 23.0426C183.502 23.0426 183.694 23.0227 183.913 22.983C184.138 22.9432 184.304 22.91 184.41 22.8835L185.205 26.7415C184.96 26.8144 184.609 26.9039 184.151 27.0099C183.7 27.116 183.163 27.1856 182.54 27.2188C181.281 27.285 180.224 27.1558 179.368 26.831C178.513 26.4995 177.87 25.9792 177.44 25.2699C177.009 24.5606 176.8 23.6723 176.813 22.6051V8.06818ZM201.803 16.6989H196.751C196.725 16.3873 196.616 16.1188 196.423 15.8935C196.231 15.6681 195.983 15.4957 195.678 15.3764C195.379 15.2505 195.048 15.1875 194.683 15.1875C194.213 15.1875 193.808 15.2737 193.47 15.446C193.132 15.6184 192.966 15.8636 192.973 16.1818C192.966 16.4072 193.063 16.616 193.261 16.8082C193.467 17.0005 193.861 17.1496 194.445 17.2557L197.547 17.8125C199.111 18.0975 200.275 18.5781 201.037 19.2543C201.806 19.9238 202.194 20.822 202.2 21.9489C202.194 23.036 201.869 23.9806 201.226 24.7827C200.59 25.5781 199.718 26.1946 198.611 26.6321C197.51 27.063 196.254 27.2784 194.842 27.2784C192.509 27.2784 190.683 26.8011 189.364 25.8466C188.051 24.892 187.319 23.6326 187.166 22.0682H192.615C192.688 22.5521 192.927 22.9266 193.331 23.1918C193.742 23.4503 194.259 23.5795 194.882 23.5795C195.386 23.5795 195.8 23.4934 196.125 23.321C196.456 23.1487 196.625 22.9034 196.632 22.5852C196.625 22.2936 196.48 22.0616 196.195 21.8892C195.916 21.7169 195.479 21.5777 194.882 21.4716L192.178 20.9943C190.62 20.7225 189.453 20.2055 188.678 19.4432C187.902 18.6809 187.518 17.6998 187.524 16.5C187.518 15.4394 187.796 14.5412 188.359 13.8054C188.929 13.063 189.742 12.4995 190.795 12.1151C191.856 11.724 193.112 11.5284 194.564 11.5284C196.771 11.5284 198.511 11.9858 199.784 12.9006C201.063 13.8153 201.736 15.0814 201.803 16.6989Z" fill="white"/>
</svg>
